# xmcd CD database file
#
# Track frame offsets:
#	150
#	14161
#	31450
#	45249
#	60322
#	72286
#	87784
#	99148
#	110991
#	127278
#	138100
#	153296
#	166023
#	177853
#	191586
#	203161
#	220766
#	231199
#	241181
#	254744
#
# Disc length: 3595 seconds
#
# Revision: 0
# Processed by: cddbd v1.4PL0 Copyright (c) Steve Scherf et al.
# Submitted via: CDex 1.50
#
DISCID=110e0914
DTITLE=varios - Country Roads
DYEAR=1900
DGENRE=Country
TTITLE0=Annie´s song
TTITLE1=Close to you
TTITLE2=Train to santa fe
TTITLE3=Crazy
TTITLE4=Some Broken Hearts Never Mend
TTITLE5=Dance Little Jean
TTITLE6=Standard Lie No. 1
TTITLE7=Stand By Your Man
TTITLE8=Memory Train
TTITLE9=All I Have To Do Is Dream
TTITLE10=Achy Breaky Heart 
TTITLE11=To All The Girls I've Loved Before
TTITLE12=Take These Chains Form My Heart
TTITLE13=Crazy Love
TTITLE14=Letter To Heaven
TTITLE15=Fire On The Mountain
TTITLE16=Act Naturally
TTITLE17=Daddy Sang  Bass
TTITLE18=When Will I Be Loved
TTITLE19=Dualling Banjos
EXTD=
EXTT0=
EXTT1=
EXTT2=
EXTT3=
EXTT4=
EXTT5=
EXTT6=
EXTT7=
EXTT8=
EXTT9=
EXTT10=
EXTT11=
EXTT12=
EXTT13=
EXTT14=
EXTT15=
EXTT16=
EXTT17=
EXTT18=
EXTT19=
PLAYORDER=
